<?xml version="1.0" encoding="UTF-8" standalone="no"?>
<!-- Created with Inkscape (http://www.inkscape.org/) -->

<svg
   xmlns:dc="http://purl.org/dc/elements/1.1/"
   xmlns:cc="http://creativecommons.org/ns#"
   xmlns:rdf="http://www.w3.org/1999/02/22-rdf-syntax-ns#"
   xmlns:svg="http://www.w3.org/2000/svg"
   xmlns="http://www.w3.org/2000/svg"
   xmlns:sodipodi="http://sodipodi.sourceforge.net/DTD/sodipodi-0.dtd"
   xmlns:inkscape="http://www.inkscape.org/namespaces/inkscape"
   width="210mm"
   height="297mm"
   viewBox="0 0 744.09448819 1052.3622047"
   id="svg3406"
   version="1.1"
   inkscape:version="0.91 r13725"
   sodipodi:docname="Mobile.svg">
  <defs
     id="defs3408" />
  <sodipodi:namedview
     id="base"
     pagecolor="#ffffff"
     bordercolor="#666666"
     borderopacity="1.0"
     inkscape:pageopacity="0.0"
     inkscape:pageshadow="2"
     inkscape:zoom="0.35"
     inkscape:cx="375"
     inkscape:cy="520"
     inkscape:document-units="px"
     inkscape:current-layer="layer1"
     showgrid="false"
     inkscape:snap-text-baseline="true"
     inkscape:window-width="667"
     inkscape:window-height="690"
     inkscape:window-x="683"
     inkscape:window-y="0"
     inkscape:window-maximized="0" />
  <metadata
     id="metadata3411">
    <rdf:RDF>
      <cc:Work
         rdf:about="">
        <dc:format>image/svg+xml</dc:format>
        <dc:type
           rdf:resource="http://purl.org/dc/dcmitype/StillImage" />
        <dc:title></dc:title>
      </cc:Work>
    </rdf:RDF>
  </metadata>
  <g
     inkscape:label="Layer 1"
     inkscape:groupmode="layer"
     id="layer1">
    <rect
       style="fill:#808080;stroke:#f2f2f2;stroke-width:0.88585865"
       id="rect3416"
       width="191.54271"
       height="137.257"
       x="31.3715"
       y="26.590849" />
    <rect
       style="fill:#b3b3b3;stroke:#f2f2f2"
       id="rect3418"
       width="154.28569"
       height="57.142868"
       x="560"
       y="29.505056" />
    <rect
       style="fill:#b3b3b3;stroke:#f2f2f2;stroke-width:0.88845539"
       id="rect3420"
       width="625.82587"
       height="117.2544"
       x="65.658516"
       y="180.87785" />
    <rect
       style="fill:#b3b3b3;stroke:#f2f2f2"
       id="rect3422"
       width="214.28572"
       height="40"
       x="283.71429"
       y="318.93362" />
    <rect
       style="fill:#b3b3b3;stroke:#f2f2f2;stroke-width:1.05481148"
       id="rect3424"
       width="602.80231"
       height="314.2309"
       x="77.170265"
       y="385.53247" />
    <rect
       style="fill:#b3b3b3;stroke:#f2f2f2;stroke-width:1.05481148"
       id="rect3424-3"
       width="602.80231"
       height="314.2309"
       x="75.741707"
       y="716.96106" />
    <rect
       style="fill:#808080;stroke:#f2f2f2"
       id="rect3458"
       width="157.14285"
       height="125.71429"
       x="111.42857"
       y="412.36221" />
    <rect
       style="fill:#808080;stroke:#f2f2f2"
       id="rect3460"
       width="157.14285"
       height="125.71429"
       x="117.14286"
       y="752.36218" />
    <path
       style="fill:none;fill-rule:evenodd;stroke:#000000;stroke-width:1px;stroke-linecap:butt;stroke-linejoin:miter;stroke-opacity:1"
       d="m 320,446.64792 c 13.33333,0 26.66667,0 40,0 55.2381,0 110.47619,0 165.71429,0 12.64279,0 6.48485,0 17.14285,0 0.95238,0 1.90476,0 2.85715,0 0.95238,0 2.85714,-0.95238 2.85714,0 0,0.95238 -3.80953,0 -2.85714,0 2.85714,0 5.71428,0 8.57142,0 0.95239,0 2.85715,-0.95238 2.85715,0 0,0.95238 -3.80953,0 -2.85715,0 3.80953,0 7.61905,0 11.42858,0 0.95238,0 2.85714,-0.95238 2.85714,0 0,0.95238 -3.80953,0 -2.85714,0 8.57142,0 17.14285,0 25.71428,0 3.80953,0 7.61905,0 11.42857,0 0.95238,0 2.85715,-0.95238 2.85715,0 0,0.95238 -3.80953,0 -2.85715,0 1.90476,0 3.80953,0 5.71429,0 0.95238,0 2.85714,-0.95238 2.85714,0 0,0.95238 -3.80952,0 -2.85714,0 1.90476,0 4.01061,0.85183 5.71428,0 0.85184,-0.42592 -0.95238,-2.85714 0,-2.85714 0.95239,0 -0.95238,2.85714 0,2.85714 1.34687,0 1.90477,-1.90476 2.85715,-2.85714"
       id="path3462"
       inkscape:connector-curvature="0" />
    <path
       style="fill:none;fill-rule:evenodd;stroke:#000000;stroke-width:1.27201903px;stroke-linecap:butt;stroke-linejoin:miter;stroke-opacity:1"
       d="m 116.84105,562.09652 c 22.56433,0 45.12868,0 67.69302,0 93.48084,0 186.96167,0 280.44252,0 21.39572,0 10.97448,0 29.01128,0 1.61174,0 3.22348,0 4.83523,0 1.61174,0 4.83521,-0.91057 4.83521,0 0,0.91058 -6.44696,0 -4.83521,0 4.83521,0 9.67042,0 14.50563,0 1.61176,0 4.83523,-0.91057 4.83523,0 0,0.91058 -6.44696,0 -4.83523,0 6.44697,0 12.89392,0 19.34088,0 1.61174,0 4.83521,-0.91057 4.83521,0 0,0.91058 -6.44696,0 -4.83521,0 14.50563,0 29.01128,0 43.51693,0 6.44697,0 12.89392,0 19.34086,0 1.61174,0 4.83523,-0.91057 4.83523,0 0,0.91058 -6.44696,0 -4.83523,0 3.22348,0 6.44697,0 9.67044,0 1.61174,0 4.83521,-0.91057 4.83521,0 0,0.91058 -6.44694,0 -4.83521,0 3.22348,0 6.78726,0.81444 9.67043,0 1.44159,-0.40722 -1.61174,-2.73171 0,-2.73171 1.61175,0 -1.61174,2.73171 0,2.73171 2.27934,0 3.22349,-1.82114 4.83522,-2.73171"
       id="path3462-1"
       inkscape:connector-curvature="0" />
    <path
       style="fill:none;fill-rule:evenodd;stroke:#000000;stroke-width:1px;stroke-linecap:butt;stroke-linejoin:miter;stroke-opacity:1"
       d="m 316.96608,522.14992 c 13.33333,0 26.66667,0 40,0 55.2381,0 110.47619,0 165.71429,0 12.64279,0 6.48485,0 17.14285,0 0.95238,0 1.90476,0 2.85715,0 0.95238,0 2.85714,-0.95238 2.85714,0 0,0.95238 -3.80953,0 -2.85714,0 2.85714,0 5.71428,0 8.57142,0 0.95239,0 2.85715,-0.95238 2.85715,0 0,0.95238 -3.80953,0 -2.85715,0 3.80953,0 7.61905,0 11.42858,0 0.95238,0 2.85714,-0.95238 2.85714,0 0,0.95238 -3.80953,0 -2.85714,0 8.57142,0 17.14285,0 25.71428,0 3.80953,0 7.61905,0 11.42857,0 0.95238,0 2.85715,-0.95238 2.85715,0 0,0.95238 -3.80953,0 -2.85715,0 1.90476,0 3.80953,0 5.71429,0 0.95238,0 2.85714,-0.95238 2.85714,0 0,0.95238 -3.80952,0 -2.85714,0 1.90476,0 4.01061,0.85183 5.71428,0 0.85184,-0.42592 -0.95238,-2.85714 0,-2.85714 0.95239,0 -0.95238,2.85714 0,2.85714 1.34687,0 1.90477,-1.90476 2.85715,-2.85714"
       id="path3462-3"
       inkscape:connector-curvature="0" />
    <path
       style="fill:none;fill-rule:evenodd;stroke:#000000;stroke-width:1px;stroke-linecap:butt;stroke-linejoin:miter;stroke-opacity:1"
       d="m 322.68037,482.14992 c 13.33333,0 26.66667,0 40,0 55.2381,0 110.47619,0 165.71429,0 12.64279,0 6.48485,0 17.14285,0 0.95238,0 1.90476,0 2.85715,0 0.95238,0 2.85714,-0.95238 2.85714,0 0,0.95238 -3.80953,0 -2.85714,0 2.85714,0 5.71428,0 8.57142,0 0.95239,0 2.85715,-0.95238 2.85715,0 0,0.95238 -3.80953,0 -2.85715,0 3.80953,0 7.61905,0 11.42858,0 0.95238,0 2.85714,-0.95238 2.85714,0 0,0.95238 -3.80953,0 -2.85714,0 8.57142,0 17.14285,0 25.71428,0 3.80953,0 7.61905,0 11.42857,0 0.95238,0 2.85715,-0.95238 2.85715,0 0,0.95238 -3.80953,0 -2.85715,0 1.90476,0 3.80953,0 5.71429,0 0.95238,0 2.85714,-0.95238 2.85714,0 0,0.95238 -3.80952,0 -2.85714,0 1.90476,0 4.01061,0.85183 5.71428,0 0.85184,-0.42592 -0.95238,-2.85714 0,-2.85714 0.95239,0 -0.95238,2.85714 0,2.85714 1.34687,0 1.90477,-1.90476 2.85715,-2.85714"
       id="path3462-18"
       inkscape:connector-curvature="0" />
    <path
       style="fill:none;fill-rule:evenodd;stroke:#000000;stroke-width:1.27201903px;stroke-linecap:butt;stroke-linejoin:miter;stroke-opacity:1"
       d="m 114.12664,599.23972 c 22.56433,0 45.12868,0 67.69302,0 93.48084,0 186.96167,0 280.44252,0 21.39572,0 10.97448,0 29.01128,0 1.61174,0 3.22348,0 4.83523,0 1.61174,0 4.83521,-0.91057 4.83521,0 0,0.91058 -6.44696,0 -4.83521,0 4.83521,0 9.67042,0 14.50563,0 1.61176,0 4.83523,-0.91057 4.83523,0 0,0.91058 -6.44696,0 -4.83523,0 6.44697,0 12.89392,0 19.34088,0 1.61174,0 4.83521,-0.91057 4.83521,0 0,0.91058 -6.44696,0 -4.83521,0 14.50563,0 29.01128,0 43.51693,0 6.44697,0 12.89392,0 19.34086,0 1.61174,0 4.83523,-0.91057 4.83523,0 0,0.91058 -6.44696,0 -4.83523,0 3.22348,0 6.44697,0 9.67044,0 1.61174,0 4.83521,-0.91057 4.83521,0 0,0.91058 -6.44694,0 -4.83521,0 3.22348,0 6.78726,0.81444 9.67043,0 1.44159,-0.40722 -1.61174,-2.73171 0,-2.73171 1.61175,0 -1.61174,2.73171 0,2.73171 2.27934,0 3.22349,-1.82114 4.83522,-2.73171"
       id="path3462-1-9"
       inkscape:connector-curvature="0" />
    <path
       style="fill:none;fill-rule:evenodd;stroke:#000000;stroke-width:1.27201903px;stroke-linecap:butt;stroke-linejoin:miter;stroke-opacity:1"
       d="m 116.98379,642.09686 c 22.56433,0 45.12868,0 67.69302,0 93.48084,0 186.96167,0 280.44252,0 21.39572,0 10.97448,0 29.01128,0 1.61174,0 3.22348,0 4.83523,0 1.61174,0 4.83521,-0.91057 4.83521,0 0,0.91058 -6.44696,0 -4.83521,0 4.83521,0 9.67042,0 14.50563,0 1.61176,0 4.83523,-0.91057 4.83523,0 0,0.91058 -6.44696,0 -4.83523,0 6.44697,0 12.89392,0 19.34088,0 1.61174,0 4.83521,-0.91057 4.83521,0 0,0.91058 -6.44696,0 -4.83521,0 14.50563,0 29.01128,0 43.51693,0 6.44697,0 12.89392,0 19.34086,0 1.61174,0 4.83523,-0.91057 4.83523,0 0,0.91058 -6.44696,0 -4.83523,0 3.22348,0 6.44697,0 9.67044,0 1.61174,0 4.83521,-0.91057 4.83521,0 0,0.91058 -6.44694,0 -4.83521,0 3.22348,0 6.78726,0.81444 9.67043,0 1.44159,-0.40722 -1.61174,-2.73171 0,-2.73171 1.61175,0 -1.61174,2.73171 0,2.73171 2.27934,0 3.22349,-1.82114 4.83522,-2.73171"
       id="path3462-1-6"
       inkscape:connector-curvature="0" />
    <path
       style="fill:none;fill-rule:evenodd;stroke:#000000;stroke-width:1.27201903px;stroke-linecap:butt;stroke-linejoin:miter;stroke-opacity:1"
       d="m 114.12665,679.23972 c 22.56433,0 45.12868,0 67.69302,0 93.48084,0 186.96167,0 280.44252,0 21.39572,0 10.97448,0 29.01128,0 1.61174,0 3.22348,0 4.83523,0 1.61174,0 4.83521,-0.91057 4.83521,0 0,0.91058 -6.44696,0 -4.83521,0 4.83521,0 9.67042,0 14.50563,0 1.61176,0 4.83523,-0.91057 4.83523,0 0,0.91058 -6.44696,0 -4.83523,0 6.44697,0 12.89392,0 19.34088,0 1.61174,0 4.83521,-0.91057 4.83521,0 0,0.91058 -6.44696,0 -4.83521,0 14.50563,0 29.01128,0 43.51693,0 6.44697,0 12.89392,0 19.34086,0 1.61174,0 4.83523,-0.91057 4.83523,0 0,0.91058 -6.44696,0 -4.83523,0 3.22348,0 6.44697,0 9.67044,0 1.61174,0 4.83521,-0.91057 4.83521,0 0,0.91058 -6.44694,0 -4.83521,0 3.22348,0 6.78726,0.81444 9.67043,0 1.44159,-0.40722 -1.61174,-2.73171 0,-2.73171 1.61175,0 -1.61174,2.73171 0,2.73171 2.27934,0 3.22349,-1.82114 4.83522,-2.73171"
       id="path3462-1-8"
       inkscape:connector-curvature="0" />
    <path
       style="fill:none;fill-rule:evenodd;stroke:#000000;stroke-width:1px;stroke-linecap:butt;stroke-linejoin:miter;stroke-opacity:1"
       d="m 334.63394,761.79568 c 13.33333,0 26.66667,0 40,0 55.2381,0 110.47619,0 165.71429,0 12.64279,0 6.48485,0 17.14285,0 0.95238,0 1.90476,0 2.85715,0 0.95238,0 2.85714,-0.95238 2.85714,0 0,0.95238 -3.80953,0 -2.85714,0 2.85714,0 5.71428,0 8.57142,0 0.95239,0 2.85715,-0.95238 2.85715,0 0,0.95238 -3.80953,0 -2.85715,0 3.80953,0 7.61905,0 11.42858,0 0.95238,0 2.85714,-0.95238 2.85714,0 0,0.95238 -3.80953,0 -2.85714,0 8.57142,0 17.14285,0 25.71428,0 3.80953,0 7.61905,0 11.42857,0 0.95238,0 2.85715,-0.95238 2.85715,0 0,0.95238 -3.80953,0 -2.85715,0 1.90476,0 3.80953,0 5.71429,0 0.95238,0 2.85714,-0.95238 2.85714,0 0,0.95238 -3.80952,0 -2.85714,0 1.90476,0 4.01061,0.85183 5.71428,0 0.85184,-0.42592 -0.95238,-2.85714 0,-2.85714 0.95239,0 -0.95238,2.85714 0,2.85714 1.34687,0 1.90477,-1.90476 2.85715,-2.85714"
       id="path3462-9"
       inkscape:connector-curvature="0" />
    <path
       style="fill:none;fill-rule:evenodd;stroke:#000000;stroke-width:1.27201903px;stroke-linecap:butt;stroke-linejoin:miter;stroke-opacity:1"
       d="m 131.47499,895.24428 c 22.56433,0 45.12868,0 67.69302,0 93.48084,0 186.96167,0 280.44252,0 21.39572,0 10.97448,0 29.01128,0 1.61174,0 3.22348,0 4.83523,0 1.61174,0 4.83521,-0.91057 4.83521,0 0,0.91058 -6.44696,0 -4.83521,0 4.83521,0 9.67042,0 14.50563,0 1.61176,0 4.83523,-0.91057 4.83523,0 0,0.91058 -6.44696,0 -4.83523,0 6.44697,0 12.89392,0 19.34088,0 1.61174,0 4.83521,-0.91057 4.83521,0 0,0.91058 -6.44696,0 -4.83521,0 14.50563,0 29.01128,0 43.51693,0 6.44697,0 12.89392,0 19.34086,0 1.61174,0 4.83523,-0.91057 4.83523,0 0,0.91058 -6.44696,0 -4.83523,0 3.22348,0 6.44697,0 9.67044,0 1.61174,0 4.83521,-0.91057 4.83521,0 0,0.91058 -6.44694,0 -4.83521,0 3.22348,0 6.78726,0.81444 9.67043,0 1.44159,-0.40722 -1.61174,-2.73171 0,-2.73171 1.61175,0 -1.61174,2.73171 0,2.73171 2.27934,0 3.22349,-1.82114 4.83522,-2.73171"
       id="path3462-1-3"
       inkscape:connector-curvature="0" />
    <path
       style="fill:none;fill-rule:evenodd;stroke:#000000;stroke-width:1px;stroke-linecap:butt;stroke-linejoin:miter;stroke-opacity:1"
       d="m 331.60002,837.29768 c 13.33333,0 26.66667,0 40,0 55.2381,0 110.47619,0 165.71429,0 12.64279,0 6.48485,0 17.14285,0 0.95238,0 1.90476,0 2.85715,0 0.95238,0 2.85714,-0.95238 2.85714,0 0,0.95238 -3.80953,0 -2.85714,0 2.85714,0 5.71428,0 8.57142,0 0.95239,0 2.85715,-0.95238 2.85715,0 0,0.95238 -3.80953,0 -2.85715,0 3.80953,0 7.61905,0 11.42858,0 0.95238,0 2.85714,-0.95238 2.85714,0 0,0.95238 -3.80953,0 -2.85714,0 8.57142,0 17.14285,0 25.71428,0 3.80953,0 7.61905,0 11.42857,0 0.95238,0 2.85715,-0.95238 2.85715,0 0,0.95238 -3.80953,0 -2.85715,0 1.90476,0 3.80953,0 5.71429,0 0.95238,0 2.85714,-0.95238 2.85714,0 0,0.95238 -3.80952,0 -2.85714,0 1.90476,0 4.01061,0.85183 5.71428,0 0.85184,-0.42592 -0.95238,-2.85714 0,-2.85714 0.95239,0 -0.95238,2.85714 0,2.85714 1.34687,0 1.90477,-1.90476 2.85715,-2.85714"
       id="path3462-3-8"
       inkscape:connector-curvature="0" />
    <path
       style="fill:none;fill-rule:evenodd;stroke:#000000;stroke-width:1px;stroke-linecap:butt;stroke-linejoin:miter;stroke-opacity:1"
       d="m 337.31431,797.29768 c 13.33333,0 26.66667,0 40,0 55.2381,0 110.47619,0 165.71429,0 12.64279,0 6.48485,0 17.14285,0 0.95238,0 1.90476,0 2.85715,0 0.95238,0 2.85714,-0.95238 2.85714,0 0,0.95238 -3.80953,0 -2.85714,0 2.85714,0 5.71428,0 8.57142,0 0.95239,0 2.85715,-0.95238 2.85715,0 0,0.95238 -3.80953,0 -2.85715,0 3.80953,0 7.61905,0 11.42858,0 0.95238,0 2.85714,-0.95238 2.85714,0 0,0.95238 -3.80953,0 -2.85714,0 8.57142,0 17.14285,0 25.71428,0 3.80953,0 7.61905,0 11.42857,0 0.95238,0 2.85715,-0.95238 2.85715,0 0,0.95238 -3.80953,0 -2.85715,0 1.90476,0 3.80953,0 5.71429,0 0.95238,0 2.85714,-0.95238 2.85714,0 0,0.95238 -3.80952,0 -2.85714,0 1.90476,0 4.01061,0.85183 5.71428,0 0.85184,-0.42592 -0.95238,-2.85714 0,-2.85714 0.95239,0 -0.95238,2.85714 0,2.85714 1.34687,0 1.90477,-1.90476 2.85715,-2.85714"
       id="path3462-18-5"
       inkscape:connector-curvature="0" />
    <path
       style="fill:none;fill-rule:evenodd;stroke:#000000;stroke-width:1.27201903px;stroke-linecap:butt;stroke-linejoin:miter;stroke-opacity:1"
       d="m 131.61773,933.2446 c 22.56433,0 45.12868,0 67.69302,0 93.48084,0 186.96167,0 280.44252,0 21.39572,0 10.97448,0 29.01128,0 1.61174,0 3.22348,0 4.83523,0 1.61174,0 4.83521,-0.9106 4.83521,0 0,0.9106 -6.44696,0 -4.83521,0 4.83521,0 9.67042,0 14.50563,0 1.61176,0 4.83523,-0.9106 4.83523,0 0,0.9106 -6.44696,0 -4.83523,0 6.44697,0 12.89392,0 19.34088,0 1.61174,0 4.83521,-0.9106 4.83521,0 0,0.9106 -6.44696,0 -4.83521,0 14.50563,0 29.01128,0 43.51693,0 6.44697,0 12.89392,0 19.34086,0 1.61174,0 4.83523,-0.9106 4.83523,0 0,0.9106 -6.44696,0 -4.83523,0 3.22348,0 6.44697,0 9.67044,0 1.61174,0 4.83521,-0.9106 4.83521,0 0,0.9106 -6.44694,0 -4.83521,0 3.22348,0 6.78726,0.8145 9.67043,0 1.44159,-0.4072 -1.61174,-2.7317 0,-2.7317 1.61175,0 -1.61174,2.7317 0,2.7317 2.27934,0 3.22349,-1.8211 4.83522,-2.7317"
       id="path3462-1-6-1"
       inkscape:connector-curvature="0" />
    <path
       style="fill:none;fill-rule:evenodd;stroke:#000000;stroke-width:1.27201903px;stroke-linecap:butt;stroke-linejoin:miter;stroke-opacity:1"
       d="m 131.26949,976.38258 c 22.56433,0 45.12868,0 67.69302,0 93.48084,0 186.96167,0 280.44252,0 21.39572,0 10.97448,0 29.01128,0 1.61174,0 3.22346,0 4.83526,0 1.6117,0 4.8352,-0.9106 4.8352,0 0,0.9106 -6.447,0 -4.8352,0 4.8352,0 9.6704,0 14.5056,0 1.6118,0 4.8352,-0.9106 4.8352,0 0,0.9106 -6.4469,0 -4.8352,0 6.447,0 12.8939,0 19.3409,0 1.6117,0 4.8352,-0.9106 4.8352,0 0,0.9106 -6.447,0 -4.8352,0 14.5056,0 29.0113,0 43.5169,0 6.447,0 12.8939,0 19.3409,0 1.6117,0 4.8352,-0.9106 4.8352,0 0,0.9106 -6.447,0 -4.8352,0 3.2235,0 6.4469,0 9.6704,0 1.6118,0 4.8352,-0.9106 4.8352,0 0,0.9106 -6.4469,0 -4.8352,0 3.2235,0 6.7873,0.8145 9.6704,0 1.4416,-0.4072 -1.6117,-2.7317 0,-2.7317 1.6118,0 -1.6117,2.7317 0,2.7317 2.2794,0 3.2235,-1.8211 4.8353,-2.7317"
       id="path3462-1-6-1-8"
       inkscape:connector-curvature="0" />
  </g>
</svg>
