<?xml version="1.0" encoding="UTF-8" standalone="no"?>
<!-- Created with Inkscape (http://www.inkscape.org/) -->

<svg
   xmlns:dc="http://purl.org/dc/elements/1.1/"
   xmlns:cc="http://creativecommons.org/ns#"
   xmlns:rdf="http://www.w3.org/1999/02/22-rdf-syntax-ns#"
   xmlns:svg="http://www.w3.org/2000/svg"
   xmlns="http://www.w3.org/2000/svg"
   xmlns:sodipodi="http://sodipodi.sourceforge.net/DTD/sodipodi-0.dtd"
   xmlns:inkscape="http://www.inkscape.org/namespaces/inkscape"
   width="210mm"
   height="297mm"
   viewBox="0 0 744.09448819 1052.3622047"
   id="svg2"
   version="1.1"
   inkscape:version="0.91 r13725"
   sodipodi:docname="Tablet.svg">
  <defs
     id="defs4">
    <inkscape:perspective
       sodipodi:type="inkscape:persp3d"
       inkscape:vp_x="0 : 526.1811 : 1"
       inkscape:vp_y="0 : 1000 : 0"
       inkscape:vp_z="744.09449 : 526.1811 : 1"
       inkscape:persp3d-origin="372.04724 : 350.7874 : 1"
       id="perspective3388" />
  </defs>
  <sodipodi:namedview
     id="base"
     pagecolor="#ffffff"
     bordercolor="#666666"
     borderopacity="1.0"
     inkscape:pageopacity="0.0"
     inkscape:pageshadow="2"
     inkscape:zoom="0.35"
     inkscape:cx="375"
     inkscape:cy="520"
     inkscape:document-units="px"
     inkscape:current-layer="layer1"
     showgrid="false"
     inkscape:window-width="667"
     inkscape:window-height="690"
     inkscape:window-x="683"
     inkscape:window-y="0"
     inkscape:window-maximized="0" />
  <metadata
     id="metadata7">
    <rdf:RDF>
      <cc:Work
         rdf:about="">
        <dc:format>image/svg+xml</dc:format>
        <dc:type
           rdf:resource="http://purl.org/dc/dcmitype/StillImage" />
        <dc:title></dc:title>
      </cc:Work>
    </rdf:RDF>
  </metadata>
  <g
     inkscape:label="Layer 1"
     inkscape:groupmode="layer"
     id="layer1">
    <rect
       style="fill:#808080;stroke:#f2f2f2"
       id="rect3338"
       width="174.28572"
       height="142.85715"
       x="31.428572"
       y="43.790775" />
    <rect
       style="fill:#b3b3b3;stroke:#f2f2f2"
       id="rect3340"
       width="494.28571"
       height="51.42857"
       x="231.42857"
       y="129.50507" />
    <rect
       style="fill:#b3b3b3;stroke:#f2f2f2"
       id="rect3342"
       width="465.71429"
       height="505.71429"
       x="245.71428"
       y="232.3622" />
    <rect
       style="fill:#b3b3b3;stroke:#f2f2f2"
       id="rect3344"
       width="188.57143"
       height="780"
       x="37.142857"
       y="232.3622" />
    <rect
       style="fill:#666666;stroke:#f2f2f2"
       id="rect3346"
       width="114.28571"
       height="105.71429"
       x="286.57144"
       y="804.14789" />
    <rect
       style="fill:#808080;stroke:#f2f2f2"
       id="rect3346-1"
       width="114.28571"
       height="105.71429"
       x="434"
       y="804.14789" />
    <rect
       style="fill:#808080;stroke:#f2f2f2"
       id="rect3346-2"
       width="114.28571"
       height="105.71429"
       x="576"
       y="804.14789" />
    <path
       style="fill:#000000;fill-rule:evenodd;stroke:#000000;stroke-width:1px;stroke-linecap:butt;stroke-linejoin:miter;stroke-opacity:1"
       d="M 271.42858,835.21935 240,866.64792 l 31.42858,17.14285"
       id="path3371"
       inkscape:connector-curvature="0" />
    <path
       style="fill:#000000;fill-rule:evenodd;stroke:#000000;stroke-width:1px;stroke-linecap:butt;stroke-linejoin:miter;stroke-opacity:1"
       d="M 701.66482,888.03379 733.0934,856.60522 701.66482,839.46237"
       id="path3371-6"
       inkscape:connector-curvature="0" />
    <rect
       style="fill:#b3b3b3;stroke:#f2f2f2;stroke-width:1.07096994"
       id="rect3404"
       width="462.78619"
       height="45.643314"
       x="245.74977"
       y="947.54053" />
    <path
       style="fill:none;fill-rule:evenodd;stroke:#000000;stroke-width:1.1208744px;stroke-linecap:butt;stroke-linejoin:miter;stroke-opacity:1"
       d="m 285.59301,653.54851 c 17.17967,0 34.35936,0 51.53905,0 71.17297,0 142.34593,0 213.51891,0 16.28993,0 8.35557,0 22.08815,0 1.22712,0 2.45424,0 3.68137,0 1.22712,0 3.68136,-0.92867 3.68136,0 0,0.92868 -4.90849,0 -3.68136,0 3.68136,0 7.36271,0 11.04408,0 1.22709,0 3.68134,-0.92867 3.68134,0 0,0.92868 -4.90844,0 -3.68134,0 4.90851,0 9.81695,0 14.72547,0 1.22709,0 3.68134,-0.92867 3.68134,0 0,0.92868 -4.90851,0 -3.68134,0 11.04404,0 22.08809,0 33.13221,0 4.90851,0 9.81695,0 14.72547,0 1.22709,0 3.68135,-0.92867 3.68135,0 0,0.92868 -4.90852,0 -3.68135,0 2.45418,0 4.90844,0 7.36269,0 1.2271,0 3.68135,-0.92867 3.68135,0 0,0.92868 -4.90844,0 -3.68135,0 2.45426,0 5.16761,0.83067 7.3627,0 1.09758,-0.41528 -1.22709,-2.78591 0,-2.78591 1.22717,0 -1.22709,2.78591 0,2.78591 1.73545,0 2.45426,-1.85724 3.68135,-2.78591"
       id="path3462-1-6-1"
       inkscape:connector-curvature="0" />
    <path
       style="fill:none;fill-rule:evenodd;stroke:#000000;stroke-width:1.1208744px;stroke-linecap:butt;stroke-linejoin:miter;stroke-opacity:1"
       d="m 288.40017,687.83408 c 17.17967,0 34.35936,0 51.53905,0 71.17297,0 142.34593,0 213.51891,0 16.28993,0 8.35557,0 22.08815,0 1.22712,0 2.45424,0 3.68137,0 1.22712,0 3.68136,-0.92867 3.68136,0 0,0.92868 -4.90849,0 -3.68136,0 3.68136,0 7.36271,0 11.04408,0 1.22709,0 3.68134,-0.92867 3.68134,0 0,0.92868 -4.90844,0 -3.68134,0 4.90851,0 9.81695,0 14.72547,0 1.22709,0 3.68134,-0.92867 3.68134,0 0,0.92868 -4.90851,0 -3.68134,0 11.04404,0 22.08809,0 33.13221,0 4.90851,0 9.81695,0 14.72547,0 1.22709,0 3.68135,-0.92867 3.68135,0 0,0.92868 -4.90852,0 -3.68135,0 2.45418,0 4.90844,0 7.36269,0 1.2271,0 3.68135,-0.92867 3.68135,0 0,0.92868 -4.90844,0 -3.68135,0 2.45426,0 5.16761,0.83067 7.3627,0 1.09758,-0.41528 -1.22709,-2.78591 0,-2.78591 1.22717,0 -1.22709,2.78591 0,2.78591 1.73545,0 2.45426,-1.85724 3.68135,-2.78591"
       id="path3462-1-6-1-2"
       inkscape:connector-curvature="0" />
    <path
       style="fill:none;fill-rule:evenodd;stroke:#000000;stroke-width:1.1208744px;stroke-linecap:butt;stroke-linejoin:miter;stroke-opacity:1"
       d="m 294.11446,610.69123 c 17.17967,0 34.35936,0 51.53905,0 71.17297,0 142.34593,0 213.51891,0 16.28993,0 8.35557,0 22.08815,0 1.22712,0 2.45424,0 3.68137,0 1.22712,0 3.68136,-0.92867 3.68136,0 0,0.92868 -4.90849,0 -3.68136,0 3.68136,0 7.36271,0 11.04408,0 1.22709,0 3.68134,-0.92867 3.68134,0 0,0.92868 -4.90844,0 -3.68134,0 4.90851,0 9.81695,0 14.72547,0 1.22709,0 3.68134,-0.92867 3.68134,0 0,0.92868 -4.90851,0 -3.68134,0 11.04404,0 22.08809,0 33.13221,0 4.90851,0 9.81695,0 14.72547,0 1.22709,0 3.68135,-0.92867 3.68135,0 0,0.92868 -4.90852,0 -3.68135,0 2.45418,0 4.90844,0 7.36269,0 1.2271,0 3.68135,-0.92867 3.68135,0 0,0.92868 -4.90844,0 -3.68135,0 2.45426,0 5.16761,0.83067 7.3627,0 1.09758,-0.41528 -1.22709,-2.78591 0,-2.78591 1.22717,0 -1.22709,2.78591 0,2.78591 1.73545,0 2.45426,-1.85724 3.68135,-2.78591"
       id="path3462-1-6-1-3"
       inkscape:connector-curvature="0" />
    <path
       style="fill:none;fill-rule:evenodd;stroke:#000000;stroke-width:1.1208744px;stroke-linecap:butt;stroke-linejoin:miter;stroke-opacity:1"
       d="m 291.25731,564.97694 c 17.17967,0 34.35936,0 51.53905,0 71.17297,0 142.34593,0 213.51891,0 16.28993,0 8.35557,0 22.08815,0 1.22712,0 2.45424,0 3.68137,0 1.22712,0 3.68136,-0.92867 3.68136,0 0,0.92868 -4.90849,0 -3.68136,0 3.68136,0 7.36271,0 11.04408,0 1.22709,0 3.68134,-0.92867 3.68134,0 0,0.92868 -4.90844,0 -3.68134,0 4.90851,0 9.81695,0 14.72547,0 1.22709,0 3.68134,-0.92867 3.68134,0 0,0.92868 -4.90851,0 -3.68134,0 11.04404,0 22.08809,0 33.13221,0 4.90851,0 9.81695,0 14.72547,0 1.22709,0 3.68135,-0.92867 3.68135,0 0,0.92868 -4.90852,0 -3.68135,0 2.45418,0 4.90844,0 7.36269,0 1.2271,0 3.68135,-0.92867 3.68135,0 0,0.92868 -4.90844,0 -3.68135,0 2.45426,0 5.16761,0.83067 7.3627,0 1.09758,-0.41528 -1.22709,-2.78591 0,-2.78591 1.22717,0 -1.22709,2.78591 0,2.78591 1.73545,0 2.45426,-1.85724 3.68135,-2.78591"
       id="path3462-1-6-1-4"
       inkscape:connector-curvature="0" />
    <path
       style="fill:none;fill-rule:evenodd;stroke:#000000;stroke-width:1.1208744px;stroke-linecap:butt;stroke-linejoin:miter;stroke-opacity:1"
       d="m 291.25732,527.83408 c 17.17967,0 34.35936,0 51.53905,0 71.17297,0 142.34593,0 213.51891,0 16.28993,0 8.35557,0 22.08815,0 1.22712,0 2.45424,0 3.68137,0 1.22712,0 3.68136,-0.92867 3.68136,0 0,0.92868 -4.90849,0 -3.68136,0 3.68136,0 7.36271,0 11.04408,0 1.22709,0 3.68134,-0.92867 3.68134,0 0,0.92868 -4.90844,0 -3.68134,0 4.90851,0 9.81695,0 14.72547,0 1.22709,0 3.68134,-0.92867 3.68134,0 0,0.92868 -4.90851,0 -3.68134,0 11.04404,0 22.08809,0 33.13221,0 4.90851,0 9.81695,0 14.72547,0 1.22709,0 3.68135,-0.92867 3.68135,0 0,0.92868 -4.90852,0 -3.68135,0 2.45418,0 4.90844,0 7.36269,0 1.2271,0 3.68135,-0.92867 3.68135,0 0,0.92868 -4.90844,0 -3.68135,0 2.45426,0 5.16761,0.83067 7.3627,0 1.09758,-0.41528 -1.22709,-2.78591 0,-2.78591 1.22717,0 -1.22709,2.78591 0,2.78591 1.73545,0 2.45426,-1.85724 3.68135,-2.78591"
       id="path3462-1-6-1-0"
       inkscape:connector-curvature="0" />
    <rect
       style="fill:#808080;stroke:#f2f2f2"
       id="rect3611"
       width="400"
       height="222.85715"
       x="280"
       y="266.64792" />
  </g>
</svg>
